<svg xmlns="http://www.w3.org/2000/svg" width="60" height="55" xmlns:v="https://vecta.io/nano"><defs><linearGradient x1="50%" y1="0%" x2="50%" y2="100%" id="A"><stop stop-color="#4a09f2" offset="0%"/><stop stop-color="#410af2" offset="100%"/></linearGradient><linearGradient x1="0%" y1="81.3593876%" x2="100%" y2="50%" id="B"><stop stop-color="#0019f4" offset="0%"/><stop stop-color="#7200f1" offset="100%"/></linearGradient><linearGradient x1="0%" y1="100%" x2="100%" y2="50%" id="C"><stop stop-color="#0019f4" offset="0%"/><stop stop-color="#7200f1" offset="100%"/></linearGradient></defs><g transform="translate(.011)" fill-rule="evenodd"><path d="M32.88.031a2.5 2.5 0 0 1 2.079 2.86c-.427 2.697-1.442 4.587-3.073 6.297l-1.386 1.365c-.548.561-.75 1.014-.265 2.157l.231.496.145.279.35.627.687 1.135.573.903a2.5 2.5 0 0 1-4.207 2.702c-3.704-5.767-3.937-8.876-1.09-11.791l1.345-1.323c.966-1.013 1.495-1.998 1.753-3.628A2.5 2.5 0 0 1 32.589.002l.291.029z" fill="url(#A)" fill-rule="nonzero"/><path d="M51.239 7.5c2.072 0 4.143 7.141 5.669 14.505l.153.749c.706 3.498 1.285 6.993 1.678 9.746.803 5.619 1.219 12.784 1.248 21.496A1 1 0 0 1 58.991 55H.989a1 1 0 0 1-.998-1.002v-.002C.02 45.285.436 38.119 1.239 32.5c1.25-8.75 4.375-25 7.5-25 2.083 0 4.583 3.333 7.5 10 5-1.667 9.583-2.5 13.75-2.5s8.75.833 13.75 2.5c2.917-6.667 5.417-10 7.5-10zM14.364 29.375c-5.868 0-10.625 4.197-10.625 9.375s4.757 9.375 10.625 9.375 10.625-4.197 10.625-9.375-4.757-9.375-10.625-9.375zm31.25 0c-5.868 0-10.625 4.197-10.625 9.375s4.757 9.375 10.625 9.375 10.625-4.197 10.625-9.375-4.757-9.375-10.625-9.375z" fill="url(#B)"/><g fill="url(#C)"><path d="M15.614 31.875c3.797 0 6.875 3.078 6.875 6.875s-3.078 6.875-6.875 6.875-6.875-3.078-6.875-6.875 3.078-6.875 6.875-6.875zM16.864 35c-1.726 0-3.125 1.399-3.125 3.125s1.399 3.125 3.125 3.125 3.125-1.399 3.125-3.125S18.59 35 16.864 35z"/><path d="M44.364 31.875c3.797 0 6.875 3.078 6.875 6.875s-3.078 6.875-6.875 6.875-6.875-3.078-6.875-6.875 3.078-6.875 6.875-6.875zM43.114 35c-1.726 0-3.125 1.399-3.125 3.125s1.399 3.125 3.125 3.125 3.125-1.399 3.125-3.125S44.84 35 43.114 35z"/></g></g></svg>